<mxfile host="65bd71144e">
    <diagram id="epOL85NFDulAUlpJKbte" name="Page-1">
        <mxGraphModel dx="323" dy="381" grid="1" gridSize="10" guides="1" tooltips="1" connect="1" arrows="1" fold="1" page="1" pageScale="1" pageWidth="1100" pageHeight="850" math="0" shadow="0">
            <root>
                <mxCell id="0"/>
                <mxCell id="1" parent="0"/>
                <mxCell id="2" value="Contacts" style="rounded=0;whiteSpace=wrap;html=1;fontSize=10;" vertex="1" parent="1">
                    <mxGeometry x="160" y="370" width="60" height="30" as="geometry"/>
                </mxCell>
                <mxCell id="3" value="Calls" style="rounded=0;whiteSpace=wrap;html=1;fontSize=10;" vertex="1" parent="1">
                    <mxGeometry x="280" y="372.5" width="50" height="25" as="geometry"/>
                </mxCell>
                <mxCell id="4" value="" style="edgeStyle=entityRelationEdgeStyle;fontSize=40;html=1;endArrow=ERzeroToMany;startArrow=ERmandOne;entryX=0;entryY=0.5;entryDx=0;entryDy=0;exitX=1;exitY=0.5;exitDx=0;exitDy=0;" edge="1" parent="1" source="2" target="3">
                    <mxGeometry width="100" height="100" relative="1" as="geometry">
                        <mxPoint x="480" y="430" as="sourcePoint"/>
                        <mxPoint x="580" y="330" as="targetPoint"/>
                    </mxGeometry>
                </mxCell>
                <mxCell id="5" value="A contact can have zero or many calls.&lt;div&gt;A call must have ONE contact.&lt;/div&gt;" style="edgeLabel;html=1;align=center;verticalAlign=middle;resizable=0;points=[];fontSize=10;" vertex="1" connectable="0" parent="4">
                    <mxGeometry x="-0.3145" relative="1" as="geometry">
                        <mxPoint x="15" y="35" as="offset"/>
                    </mxGeometry>
                </mxCell>
            </root>
        </mxGraphModel>
    </diagram>
</mxfile>